
<svg width="176" height="44" viewBox="0 0 176 44" fill="none" xmlns="http://www.w3.org/2000/svg">
<path d="M48.6492 2.88374C48.0078 2.41862 46.9084 2.51165 46.3587 3.06979L42.5107 6.60467C41.961 7.16281 41.961 8.00002 42.6023 8.46514C42.6023 8.46514 48.4659 12.8372 48.4659 22.3256C48.4659 31.2558 42.2358 36.4651 42.2358 36.4651C41.5945 37.0233 41.5945 37.8605 42.1442 38.4186L45.9006 41.9535C46.4503 42.5116 47.5497 42.6047 48.1911 42.1396C48.1911 42.1396 57.0781 36 57.0781 22.4186C57.2613 8.83723 48.6492 2.88374 48.6492 2.88374Z" fill="#FF560A"/>
<path d="M79.8914 24.6513C79.8914 24.6513 79.2501 24.5583 79.2501 25.1165C79.2501 28.2792 81.5406 30.4188 85.1137 30.4188C87.7707 30.4188 88.8701 29.7676 90.5192 28.5583C90.8857 28.2792 91.2522 28.0002 91.6187 28.3723C91.8019 28.6513 94.6421 31.256 94.6421 31.256C95.0086 31.6281 94.9169 32.0002 94.5505 32.3723C94.184 32.6513 89.9695 36.0002 85.1137 36.0002C78.792 36.0002 72.6536 33.2095 72.6536 22.6048C72.6536 14.0467 77.4177 9.20947 84.3808 9.20947C91.8935 9.20947 96.108 14.5118 96.108 21.7676V23.6281C96.108 24.3723 95.5583 24.7444 95.0085 24.7444H79.8914V24.6513ZM88.8701 17.3955C88.1371 15.8141 86.6712 14.6978 84.3808 14.6978C82.0903 14.6978 80.6244 15.8141 79.8914 17.3955C79.525 18.3258 79.3417 19.0699 79.2501 20.1862H89.4198C89.4198 19.0699 89.2366 18.3258 88.8701 17.3955Z" fill="#004FB9"/>
<path d="M146.04 24.6513C146.04 24.6513 145.399 24.5583 145.399 25.1165C145.399 28.2792 147.69 30.4188 151.263 30.4188C153.92 30.4188 155.019 29.7676 156.668 28.5583C157.035 28.2792 157.401 28.0002 157.768 28.3723C157.951 28.6513 160.791 31.256 160.791 31.256C161.158 31.6281 161.066 32.0002 160.7 32.3723C160.333 32.6513 156.119 36.0002 151.263 36.0002C144.941 36.0002 138.803 33.2095 138.803 22.6048C138.803 14.0467 143.567 9.20947 150.53 9.20947C158.043 9.20947 162.257 14.5118 162.257 21.7676V23.6281C162.257 24.3723 161.707 24.7444 161.158 24.7444H146.04V24.6513ZM154.928 17.3955C154.195 15.8141 152.729 14.6978 150.438 14.6978C148.148 14.6978 146.682 15.8141 145.949 17.3955C145.491 18.3258 145.399 19.0699 145.308 20.1862H155.477C155.477 19.0699 155.294 18.3258 154.928 17.3955Z" fill="#004FB9"/>
<path d="M115.347 35.7209C114.889 35.7209 114.431 35.3488 114.431 34.7906V20.8371C114.431 18.5115 113.881 15.1627 110.033 15.1627C107.926 15.1627 105.544 16.372 105.544 19.9069V34.7906C105.544 35.2557 105.178 35.7209 104.628 35.7209H99.6804C99.2223 35.7209 98.7642 35.3488 98.7642 34.7906V10.4185C98.7642 9.95341 99.1307 9.48829 99.6804 9.48829H104.445C104.903 9.48829 105.361 9.86039 105.361 10.4185V11.0697C105.361 11.5348 105.727 11.7209 106.094 11.5348C106.094 11.5348 108.476 9.30225 112.049 9.30225C114.706 9.30225 116.905 10.1395 118.371 11.6278C120.57 13.7674 121.119 16.186 121.119 19.0697V34.8836C121.119 35.3488 120.753 35.8139 120.203 35.8139H115.347V35.7209Z" fill="#004FB9"/>
<path d="M131.473 10.3255H135.321C135.779 10.3255 136.237 10.6976 136.237 11.1627V15.1627C136.237 15.6278 135.87 16.093 135.321 16.093H132.297C131.839 16.093 131.381 16.465 131.381 17.0232V26.9767C131.381 27.4418 131.473 28.279 131.656 28.7441C131.656 28.7441 132.114 30.2325 133.671 30.2325H135.229C135.687 30.2325 136.145 30.6046 136.145 31.1627V34.8837C136.145 35.3488 135.779 35.8139 135.229 35.8139H132.48C126.983 35.8139 125.243 32.093 125.243 28.372V16.279V14.5116V11.3488V9.58133V6.04644C125.243 5.58133 125.609 5.11621 126.159 5.11621H130.556C131.015 5.11621 131.381 5.4883 131.381 6.04644V10.3255H131.473Z" fill="#004FB9"/>
<path d="M172.06 35.7209C166.563 35.7209 164.823 31.9999 164.823 28.279V6.04644C164.823 5.58133 165.189 5.11621 165.739 5.11621H170.136C170.594 5.11621 171.053 5.4883 171.053 6.04644V26.9767C171.053 27.4418 171.144 28.279 171.327 28.7441C171.327 28.7441 171.786 30.2325 173.435 30.2325H175.084C175.542 30.2325 176 30.6046 176 31.1627V34.8837C176 35.3488 175.634 35.8139 175.084 35.8139H172.06V35.7209Z" fill="#004FB9"/>
<path d="M12.0021 25.3023C12.0021 25.3023 10.9026 25.2093 10.9026 26.1395C10.9026 31.2558 14.659 34.8837 20.5226 34.8837C24.9203 34.8837 26.7527 33.8605 29.4096 31.814C30.051 31.3488 30.6923 30.8837 31.1504 31.4419C31.5169 31.814 36.0978 36.1861 36.0978 36.1861C36.6475 36.7442 36.5559 37.3953 35.9146 37.9535C35.2732 38.5116 28.4018 44 20.431 44C9.98645 44 0 39.3488 0 21.9535C0 7.90698 7.7876 0 19.24 0C31.5169 0 38.4799 8.74419 38.4799 20.5581V23.5349C38.4799 24.7442 37.4721 25.3023 36.7391 25.3023H12.0021ZM26.5695 13.3953C25.3784 10.8837 22.9047 8.93023 19.24 8.93023C15.4836 8.93023 13.1015 10.7907 11.9104 13.3953C11.2691 14.9767 10.9943 16.093 10.9026 18.0465H27.6689C27.4856 16.093 27.3024 14.9767 26.5695 13.3953Z" fill="#004FB9"/>
</svg>
